<svg width="154" height="63" viewBox="0 0 154 63" fill="none" xmlns="http://www.w3.org/2000/svg">
<path fill-rule="evenodd" clip-rule="evenodd" d="M5.65829 61.0064H1.02661V61.9047H26.6737V45.735H25.9133C25.9133 45.735 25.9133 55.0637 22.8024 58.1041C20.1755 60.73 17.4103 60.9373 12.9169 60.9373V31.1545C12.9169 31.1545 16.0277 30.9472 17.5486 32.4675C19.899 34.8169 20.1755 37.8574 20.1755 42.0726H21.0051V19.2691H20.1755C20.1755 23.4843 19.9681 26.5247 17.5486 28.8742C16.0277 30.3944 12.9169 30.1871 12.9169 30.1871V1.92463C17.4103 1.92463 19.5533 2.20103 22.1803 4.75779C25.222 7.79825 25.2911 17.1269 25.2911 17.1269H26.0515V1.02631H1.02661V1.92463H5.65829V61.0064Z" fill="black"/>
<path fill-rule="evenodd" clip-rule="evenodd" d="M55.7772 1.92463V61.0064C60.2707 61.0064 63.0358 60.73 65.6628 58.1732C68.7045 55.1328 68.7736 45.8041 68.7736 45.8041H69.534V61.9738H43.887V61.0755H48.5186V1.85552H43.887V1.02631H59.9941V1.92463H55.7772Z" fill="black"/>
<path fill-rule="evenodd" clip-rule="evenodd" d="M96.9785 1.92463V61.0064C101.472 61.0064 104.237 60.73 106.864 58.1732C109.906 55.1328 109.975 45.8041 109.975 45.8041H110.735V61.9738H85.0881V61.0755H89.7198V1.85552H85.0881V1.02631H101.195V1.92463H96.9785Z" fill="black"/>
<path fill-rule="evenodd" clip-rule="evenodd" d="M131.958 61.0064H127.326V61.9047H152.973V45.735H152.213C152.213 45.735 152.213 55.0637 149.102 58.1041C146.475 60.73 143.71 60.9373 139.216 60.9373V31.1545C139.216 31.1545 142.327 30.9472 143.848 32.4675C146.199 34.8169 146.475 37.8574 146.475 42.0726H147.305V19.2691H146.475C146.475 23.4843 146.268 26.5247 143.848 28.8742C142.327 30.3944 139.216 30.1871 139.216 30.1871V1.92463C143.71 1.92463 145.853 2.20103 148.48 4.75779C151.522 7.79825 151.591 17.1269 151.591 17.1269H152.351V1.02631H127.326V1.92463H131.958V61.0064Z" fill="black"/>
</svg>
